<svg id="圖層_1" xmlns="http://www.w3.org/2000/svg" viewBox="0 0 80 80"><style>.st0,.st1{fill:#e6e6e6;stroke:#898989;stroke-width:1.6522;stroke-miterlimit:10}.st1{fill:#fff}.st2{opacity:.2;fill:#64be00}.st3{opacity:.4}.st3,.st4{fill:#64be00}.st5{fill:#fff}.st6{fill:#dadada}.st7{fill:#898989}.st8{fill:#b2b2b2}.st9{fill:none;stroke:#dadada;stroke-width:.5579;stroke-miterlimit:10}.st10{fill:#83cc33}.st11{fill:none;stroke:#83cc33;stroke-width:2;stroke-linecap:round;stroke-miterlimit:10}.st12{fill:#a2d966}.st13{fill:#c1e599}.st14,.st15,.st16{fill:none;stroke-miterlimit:10}.st14{stroke-width:2;stroke-linecap:round;stroke:#e0f2cc}.st15,.st16{stroke:#3c9f00}.st16{stroke:#64be00}.st17{fill:#6d6e70}.st18,.st19{fill:none;stroke:#6d6e70;stroke-width:.6079;stroke-linejoin:round;stroke-miterlimit:10}.st19{stroke-width:1.2159}.st20{fill:#3c9f00}.st21{fill:#d0d2d3}.st22{display:none}.st23{fill:none;stroke:#6d6e70;stroke-width:.6079;stroke-linejoin:round;stroke-miterlimit:10}.st23,.st24,.st25{display:inline}.st25{fill:#d0d2d3}.st26{fill:none}.st27{fill:#00b2ff}.st28{fill:none;stroke:#fff;stroke-width:.7972;stroke-linecap:round;stroke-miterlimit:10}</style><path class="st27" d="M72.1 32.5c-.5 0-1-.2-1.3-.5-8.2-8.3-19.2-12.9-30.8-12.9S17.4 23.7 9.2 31.9c-.7.7-1.9.7-2.6 0-.7-.7-.7-1.9 0-2.6 8.9-8.9 20.8-13.9 33.5-13.9s24.5 4.9 33.5 13.9c.7.7.7 1.9 0 2.6-.5.4-1 .6-1.5.6z"/><path class="st27" d="M63.1 41.5c-.5 0-1-.2-1.3-.5-5.8-5.8-13.5-9-21.7-9s-15.9 3.2-21.7 9c-.7.7-1.9.7-2.6 0-.7-.7-.7-1.9 0-2.6 6.5-6.5 15.2-10.1 24.4-10.1s17.9 3.6 24.4 10.1c.7.7.7 1.9 0 2.6-.6.3-1.1.5-1.5.5z"/><path class="st27" d="M54.5 50.1c-.5 0-1-.2-1.3-.5C49.7 46 45 44.1 40 44.1s-9.7 1.9-13.2 5.5c-.7.7-1.9.7-2.6 0-.7-.7-.7-1.9 0-2.6 4.2-4.2 9.9-6.6 15.8-6.6s11.6 2.3 15.8 6.6c.7.7.7 1.9 0 2.6-.3.3-.8.5-1.3.5zM40 64.6c-.5 0-1-.2-1.3-.5l-6-6c-.7-.7-.7-1.9 0-2.6 2-2 4.6-3.1 7.4-3.1s5.4 1.1 7.4 3.1c.7.7.7 1.9 0 2.6l-6 6c-.5.3-1 .5-1.5.5zm-3.2-7.7l3.2 3.2 3.2-3.2c-1-.5-2.1-.8-3.2-.8s-2.2.2-3.2.8z"/></svg>
